# xmcd CD database file
# Copyright (C) 1997 Ti Kan
# 
# Track frame offsets:
#     150
#     17395
#     30555
#     50337
#     59678
#     82013
#     100510
#     110972
#     130664
#     155290
#     172528
#     188647
#     202783
#     209963
#     225507
#     246436
#     267124
#     281520
#     294653
#     307400
#     320319
# 
# Disc length: 4403 seconds
# 
# Revision: 1
# Processed by: cddbd v1.4b41PL1 Copyright (c) Steve Scherf et al.
# Submitted via: DiscPlay 4.0.4
# 
DISCID=25113115
DTITLE=Woody Phillips - Every Now and Then I Get It Right
DYEAR=1900
DGENRE=
TTITLE0=Slowly Dying
TTITLE1=I've Got To Find Another Way
TTITLE2=Lord, Now It's Up To Me
TTITLE3=Every Now and Then I Get It Right
TTITLE4=You Were Made For Me
TTITLE5=If We Leave It Alone
TTITLE6=Friends
TTITLE7=You Can't Stop The Changing Tide
TTITLE8=The Day Of The Dime Song Is Gone
TTITLE9=That Crazy Feeling's Gone (From The Wine)
TTITLE10=Guitar Picker
TTITLE11=Cowboy, I Love You
TTITLE12=I Believe
TTITLE13=Ode To A Drugstore Cowboy
TTITLE14=Another Woman's Arms
TTITLE15=Lord, Did You Lead Me Here
TTITLE16=I Don't Know How I'll Go On
TTITLE17=Why Hurt Me
TTITLE18=She Just Walked Away
TTITLE19=Five Good Songs
TTITLE20=I Aint Gonna Let You (hurt me anymore)
EXTD=
EXTT0=
EXTT1=
EXTT2=
EXTT3=
EXTT4=
EXTT5=
EXTT6=
EXTT7=
EXTT8=
EXTT9=
EXTT10=
EXTT11=
EXTT12=
EXTT13=
EXTT14=
EXTT15=
EXTT16=
EXTT17=
EXTT18=
EXTT19=
EXTT20=
PLAYORDER=
